HIERARCHY
ROOT Hips
{
	OFFSET 0.00000 0.00000 0.00000
	CHANNELS 6 Xposition Yposition Zposition Zrotation Yrotation Xrotation 
	JOINT LHipJoint
	{
		OFFSET 0 0 0
		CHANNELS 3 Zrotation Yrotation Xrotation
		JOINT LeftHip
		{
			OFFSET 1.62964 -1.40469 0.78906
			CHANNELS 3 Zrotation Yrotation Xrotation
			JOINT LeftKnee
			{
				OFFSET 2.29640 -6.30932 0.00000
				CHANNELS 3 Zrotation Yrotation Xrotation
				JOINT LeftAnkle
				{
					OFFSET 2.29451 -6.30412 0.00000
					CHANNELS 3 Zrotation Yrotation Xrotation
					JOINT LeftToe
					{
						OFFSET 0.03611 -0.09921 1.56387
						CHANNELS 3 Zrotation Yrotation Xrotation
						End Site
						{
							OFFSET 0.00000 -0.00000 0.80291
						}
					}
				}
			}
		}
	}
	JOINT RHipJoint
	{
		OFFSET 0 0 0
		CHANNELS 3 Zrotation Yrotation Xrotation
		JOINT RightHip
		{
			OFFSET -1.73712 -1.40469 0.78906
			CHANNELS 3 Zrotation Yrotation Xrotation
			JOINT RightKnee
			{
				OFFSET -2.28137 -6.26801 0.00000
				CHANNELS 3 Zrotation Yrotation Xrotation
				JOINT RightAnkle
				{
					OFFSET -2.28681 -6.28298 0.00000
					CHANNELS 3 Zrotation Yrotation Xrotation
					JOINT RightToe
					{
						OFFSET -0.15927 -0.43759 1.61103
						CHANNELS 3 Zrotation Yrotation Xrotation
						End Site
						{
							OFFSET -0.00000 -0.00000 0.84630
						}
					}
				}
			}
		}
	}
	JOINT lowerback
	{
		OFFSET 0 0 0
		CHANNELS 3 Zrotation Yrotation Xrotation
		JOINT Chest
		{
			OFFSET -0.04227 2.04338 -0.00225
			CHANNELS 3 Zrotation Yrotation Xrotation
			JOINT Chest2
			{
				OFFSET -0.02148 2.04482 -0.04273
				CHANNELS 3 Zrotation Yrotation Xrotation
				JOINT lowerneck
				{
					OFFSET 0 0 0
					CHANNELS 3 Zrotation Yrotation Xrotation
					JOINT Neck
					{
						OFFSET 0.09180 1.44629 0.19359
						CHANNELS 3 Zrotation Yrotation Xrotation
						JOINT Head
						{
							OFFSET 0.00887 1.40645 0.14750
							CHANNELS 3 Zrotation Yrotation Xrotation
							End Site
							{
								OFFSET -0.00669 1.50671 0.03707
							}
						}
					}
				}
				JOINT LeftCollar
				{
					OFFSET 0 0 0
					CHANNELS 3 Zrotation Yrotation Xrotation
					JOINT LeftShoulder
					{
						OFFSET 2.17674 1.86763 -0.06520
CHANNELS 3 Zrotation Xrotation Yrotation
						JOINT LeftElbow
						{
OFFSET 0 -4.657760 0.000000
CHANNELS 3 Zrotation Xrotation Yrotation
							JOINT LeftWrist
							{
OFFSET 0 -3.555390 0.000000
CHANNELS 3 Zrotation Xrotation Yrotation
								JOINT lhand
								{
									OFFSET 0 0 0
CHANNELS 3 Zrotation Xrotation Yrotation
									JOINT LFingers
									{
OFFSET 0 -0.707260 0.000000
CHANNELS 3 Zrotation Xrotation Yrotation
										End Site
										{
OFFSET 0 -0.570220 0.000000
										}
									}
								}
								JOINT LThumb
								{
OFFSET 0 0.000000 0.000000
CHANNELS 3 Zrotation Xrotation Yrotation
									End Site
									{
OFFSET 0 -0.578920 0.578920
									}
								}
							}
						}
					}
				}
				JOINT RightCollar
				{
					OFFSET 0 0 0
					CHANNELS 3 Zrotation Yrotation Xrotation
					JOINT RightShoulder
					{
						OFFSET -2.80694 1.55459 -0.32496
CHANNELS 3 Zrotation Xrotation Yrotation
						JOINT RightElbow
						{
OFFSET 0 -4.719250 -0.000000
CHANNELS 3 Zrotation Xrotation Yrotation
							JOINT RightWrist
							{
OFFSET 0 -3.569900 0.000000
CHANNELS 3 Zrotation Xrotation Yrotation
								JOINT rhand
								{
									OFFSET 0 0 0
CHANNELS 3 Zrotation Xrotation Yrotation
									JOINT RFingers
									{
OFFSET 0 -0.507760 0.000000
CHANNELS 3 Zrotation Xrotation Yrotation
										End Site
										{
OFFSET 0 -0.409370 0.000000
										}
									}
								}
								JOINT RThumb
								{
OFFSET 0 0.000000 0.000000
CHANNELS 3 Zrotation Xrotation Yrotation
									End Site
									{
OFFSET 0 -0.415620 0.415620
									}
								}
							}
						}
					}
				}
			}
		}
	}
}
MOTION
Frames: 12
Frame Time: 0.008333333333333333
7.100300 16.325700 31.313100 178.345000 -4.641800 -155.760000 0.000000 0.000000 0.000000 -18.721400 -15.889500 -18.410600 0.254200 3.243900 8.958700 0.280600 0.018000 -10.013100 2.842000 -10.434800 -30.396500 0.000000 0.000000 0.000000 18.859000 13.140400 -17.846700 -0.111700 -2.154800 5.933800 -1.138000 -2.629200 -21.256500 -2.876800 10.492800 -30.587900 -6.749900 -2.112100 -28.246200 0.183800 -1.073600 -0.471700 3.424800 -1.145300 14.591200 -1.889600 -3.331200 -0.963200 2.958900 -6.755500 20.270900 0.791000 -3.825100 6.474400 -0.000000 -0.000000 0.000000 4.977300 -3.387700 -21.845000 17.794500 -27.893300 4.452700 23.826700 -6.027200 14.086600 0.000000 0.000000 0.000000 -7.125000 0.000000 0.000000 -2.467800 14.650100 -1.765100 -0.000000 -0.000000 0.000000 1.101500 4.788400 -1.669200 -14.464000 -23.394100 -3.009900 -15.175100 20.505700 55.909900 0.000000 0.000000 0.000000 7.125000 0.000000 -0.000000 78.376100 77.470400 -65.540600
7.097526 16.327716 31.306619 178.396000 -4.553923 -155.674725 0.000000 0.000000 0.000000 -18.675513 -15.856147 -18.446560 0.250377 3.219421 8.890271 0.284717 0.018619 -10.085932 2.760902 -10.297577 -29.945895 0.000000 0.000000 0.000000 18.890536 13.110471 -17.906828 -0.108494 -2.123838 5.847990 -1.126815 -2.538075 -21.114691 -2.856811 10.459482 -30.477957 -6.638599 -2.097117 -28.284830 0.167178 -1.093948 -0.514504 3.336796 -1.147328 14.560150 -1.779887 -3.383312 -0.734880 2.991262 -6.770767 19.804558 0.796968 -3.813416 6.284056 0.000000 0.000000 0.000000 5.041635 -3.372593 -22.348395 18.124791 -28.316469 4.608409 23.945363 -6.240149 14.071727 0.000000 0.000000 0.000000 -7.125000 0.000000 0.000000 -2.385992 14.652138 -1.706384 0.000000 0.000000 0.000000 1.148555 4.670350 -1.331384 -14.717608 -23.751174 -3.111351 -14.664822 19.608942 55.199468 0.000000 0.000000 0.000000 7.125000 0.000000 0.000000 75.212211 77.210139 -62.199210
7.094457 16.324983 31.298966 178.237022 -4.380125 -155.734564 0.000000 0.000000 0.000000 -18.974692 -15.754917 -18.249735 0.243081 3.172551 8.759593 0.284135 0.118916 -10.112421 2.851594 -10.450827 -30.449419 0.000000 0.000000 0.000000 18.729941 12.694261 -17.891327 -0.104311 -2.082458 5.733620 -1.110549 -2.245997 -20.834190 -2.984026 10.669235 -31.172113 -6.788016 -2.132929 -28.146584 0.164661 -1.108240 -0.560575 3.412136 -1.161118 14.443642 -1.730415 -3.473391 -0.487719 2.804780 -6.804996 19.395536 0.742466 -3.832262 6.104435 0.000000 0.000000 0.000000 4.984847 -3.279097 -22.757225 18.381511 -28.642921 4.730748 23.942669 -6.405750 14.192527 0.000000 0.000000 0.000000 -7.125000 0.000000 0.000000 -2.395593 14.522099 -1.719891 0.000000 0.000000 0.000000 1.040031 4.590636 -1.065259 -14.903346 -24.011183 -3.186566 -13.900762 18.672453 54.834946 0.000000 0.000000 0.000000 7.125000 0.000000 0.000000 73.692107 76.873290 -60.373567
7.092003 16.323521 31.293239 178.255342 -4.268255 -155.763766 0.000000 0.000000 0.000000 -18.987326 -15.750376 -18.131529 0.235815 3.125552 8.628443 0.281610 0.260789 -10.122158 2.775849 -10.322847 -30.028885 0.000000 0.000000 0.000000 18.715595 12.882295 -17.820213 -0.106450 -2.104170 5.793646 -1.126827 -2.215398 -20.963989 -2.979620 10.662000 -31.148195 -6.763235 -2.141720 -28.090946 0.196212 -1.140494 -0.593341 3.421726 -1.173501 14.383694 -1.776151 -3.434234 -0.452803 2.763422 -6.733850 19.344948 0.742986 -3.803452 6.080437 0.000000 0.000000 0.000000 4.974374 -3.232843 -23.011763 18.550970 -28.856925 4.812257 23.937546 -6.502446 14.487427 0.000000 0.000000 0.000000 -7.125000 0.000000 0.000000 -2.418407 14.204259 -1.752642 0.000000 0.000000 0.000000 0.994152 4.558323 -0.421413 -15.203829 -24.429174 -3.309887 -14.417813 18.613739 55.023412 0.000000 0.000000 0.000000 7.125000 0.000000 0.000000 74.445623 77.096937 -61.337770
7.089573 16.324900 31.290251 178.222845 -4.087441 -155.727656 0.000000 0.000000 0.000000 -19.070646 -15.688242 -18.132257 0.234283 3.115434 8.600375 0.286052 0.299791 -10.215844 2.794014 -10.353736 -30.130113 0.000000 0.000000 0.000000 18.618817 13.048343 -17.807694 -0.106310 -2.102197 5.788166 -1.131996 -2.206441 -21.005607 -2.951581 10.616217 -30.996294 -6.786822 -2.115001 -28.087926 0.171597 -1.104574 -0.642503 3.420940 -1.158622 14.320103 -1.837732 -3.370038 -0.352061 2.888523 -6.657783 19.255580 0.800806 -3.764429 6.038739 0.000000 0.000000 0.000000 5.030563 -3.219373 -23.334348 18.596272 -28.913943 4.834068 23.750220 -6.577685 14.711907 0.000000 0.000000 0.000000 -7.125000 0.000000 0.000000 -2.560175 13.985166 -1.867515 0.000000 0.000000 0.000000 1.051417 4.545562 -0.007494 -15.494897 -24.830859 -3.431126 -14.940757 18.707549 55.457909 0.000000 0.000000 0.000000 7.125000 0.000000 0.000000 76.330583 77.346836 -63.421607
7.088224 16.323914 31.286542 178.159553 -3.948232 -155.716689 0.000000 0.000000 0.000000 -19.192939 -15.437978 -18.200451 0.234159 3.114529 8.597723 0.284873 0.112217 -10.122937 2.762111 -10.299480 -29.952180 0.000000 0.000000 0.000000 18.521473 13.030063 -17.765095 -0.102673 -2.066095 5.688326 -1.129173 -2.159841 -20.959843 -2.940797 10.598531 -30.937518 -6.888653 -2.131985 -28.017844 0.193140 -1.112082 -0.704094 3.497766 -1.167975 14.217438 -1.802000 -3.348217 -0.305597 2.758423 -6.588827 19.153372 0.761286 -3.734542 5.991131 0.000000 0.000000 0.000000 5.014443 -3.121630 -23.845015 18.653513 -28.985840 4.861770 24.321713 -6.753055 14.618349 0.000000 0.000000 0.000000 -7.125000 0.000000 0.000000 -2.166751 14.015458 -1.578649 0.000000 0.000000 0.000000 1.001448 4.513722 0.401731 -15.776504 -25.216614 -3.550244 -14.681792 17.950453 55.575906 0.000000 0.000000 0.000000 7.125000 0.000000 0.000000 76.865786 77.260417 -63.844200
7.085120 16.324985 31.278736 178.101179 -3.807158 -155.744339 0.000000 0.000000 0.000000 -19.333009 -15.351858 -18.068156 0.226911 3.066259 8.463243 0.282061 0.197797 -10.105742 2.778165 -10.326851 -30.042016 0.000000 0.000000 0.000000 18.460488 12.828336 -17.667979 -0.095414 -1.991285 5.481704 -1.108779 -2.001686 -20.706819 -2.967619 10.642445 -31.083337 -6.934073 -2.135833 -28.041385 0.175356 -1.094545 -0.672530 3.509360 -1.163658 14.262902 -1.726431 -3.367797 -0.251811 2.682344 -6.560806 18.901121 0.732776 -3.711674 5.896727 0.000000 0.000000 0.000000 4.997158 -3.136060 -24.122957 18.628560 -28.954471 4.849736 24.565511 -6.747526 14.740172 0.000000 0.000000 0.000000 -7.125000 0.000000 0.000000 -2.010313 13.852938 -1.471428 0.000000 0.000000 0.000000 0.974759 4.419679 0.960881 -16.071847 -25.617799 -3.677076 -14.963284 17.589182 55.763267 0.000000 0.000000 0.000000 7.125000 0.000000 0.000000 77.703987 77.380570 -64.789490
7.080239 16.318779 31.274212 178.034269 -3.496269 -155.434067 0.000000 0.000000 0.000000 -19.415228 -15.459062 -18.336201 0.226353 3.062180 8.452022 0.284971 0.408277 -10.239023 2.765820 -10.305940 -29.973368 0.000000 0.000000 0.000000 18.227329 13.093669 -18.221098 -0.110732 -2.145018 5.906724 -1.130277 -1.736581 -20.781507 -2.997179 10.690376 -31.242769 -7.004965 -2.095338 -28.384250 0.149008 -1.006940 -0.707414 3.544251 -1.137930 14.371539 -1.684632 -3.474703 -0.124440 2.671918 -6.621279 18.392727 0.732371 -3.721515 5.714780 0.000000 0.000000 0.000000 4.956247 -3.334943 -24.227443 18.423628 -28.696181 4.750854 24.467446 -6.435045 14.493573 0.000000 0.000000 0.000000 -7.125000 0.000000 0.000000 -2.059253 14.132411 -1.495140 0.000000 0.000000 0.000000 0.969279 4.232355 1.313098 -16.257605 -25.868734 -3.757719 -14.965829 17.057755 55.062074 0.000000 0.000000 0.000000 7.125000 0.000000 0.000000 74.561723 77.309646 -61.682284
7.080278 16.312313 31.275387 178.287881 -3.235570 -155.009863 0.000000 0.000000 0.000000 -19.034231 -15.464218 -18.897592 0.230433 3.089678 8.528488 0.289359 0.568059 -10.383045 2.776058 -10.323384 -30.030408 0.000000 0.000000 0.000000 18.397545 13.145482 -18.802243 -0.111170 -2.147147 5.912508 -1.134528 -1.353441 -20.656920 -3.006638 10.705697 -31.293598 -6.780849 -1.972414 -28.726465 0.200250 -0.933175 -0.836957 3.498465 -1.100226 14.371494 -1.620994 -3.395673 -0.397420 2.608236 -6.526980 18.650480 0.695377 -3.674987 5.836010 0.000000 0.000000 0.000000 4.941993 -3.365841 -24.309412 18.235534 -28.457707 4.660993 24.304246 -6.361029 14.674835 0.000000 0.000000 0.000000 -7.125000 0.000000 0.000000 -2.182464 13.956575 -1.592930 0.000000 0.000000 0.000000 1.018819 3.943780 1.565901 -16.474146 -26.159214 -3.852755 -16.685693 17.830170 57.020267 0.000000 0.000000 0.000000 7.125000 0.000000 0.000000 83.914466 77.980447 -71.602246
7.077602 16.327433 31.257676 178.241461 -3.730882 -155.551626 0.000000 0.000000 0.000000 -19.157964 -15.434714 -18.154452 0.225094 3.053786 8.428478 0.288450 0.278187 -10.249167 2.720163 -10.227603 -29.716848 0.000000 0.000000 0.000000 18.604201 12.785215 -17.663977 -0.086273 -1.894751 5.214954 -1.115752 -1.758898 -20.662026 -2.928574 10.578472 -30.871197 -6.712443 -2.140012 -28.240811 0.206269 -1.167530 -0.681549 3.389878 -1.187419 14.353444 -1.454068 -3.475953 -0.136872 2.500183 -6.536540 18.047901 0.651977 -3.660466 5.594087 0.000000 0.000000 0.000000 4.963832 -3.413919 -24.304059 17.992346 -28.147238 4.545737 24.122118 -6.054944 14.593031 0.000000 0.000000 0.000000 -7.125000 0.000000 0.000000 -2.300186 14.067627 -1.673505 0.000000 0.000000 0.000000 1.068706 3.736321 1.763267 -16.633656 -26.372308 -3.923183 -15.534424 16.339715 57.360943 0.000000 0.000000 0.000000 7.125000 0.000000 0.000000 85.356530 77.514965 -72.560397
7.075876 16.330341 31.249559 178.202172 -3.834639 -155.692583 0.000000 0.000000 0.000000 -19.231066 -15.496320 -17.928407 0.224472 3.049985 8.417929 0.288296 0.350913 -10.274489 2.812851 -10.385127 -30.233698 0.000000 0.000000 0.000000 18.570030 12.946991 -17.511883 -0.091451 -1.950429 5.368607 -1.124895 -2.003658 -20.851118 -2.864369 10.472068 -30.519409 -6.747889 -2.224676 -28.078773 0.214332 -1.274430 -0.673928 3.380597 -1.234101 14.298824 -1.478380 -3.294552 -0.660233 2.543530 -6.416447 18.930318 0.645931 -3.618532 5.960297 0.000000 0.000000 0.000000 4.969971 -3.398112 -24.299091 17.670357 -27.732864 4.394852 24.192256 -5.637395 14.321391 0.000000 0.000000 0.000000 -7.125000 0.000000 0.000000 -2.234299 14.352591 -1.611951 0.000000 0.000000 0.000000 1.110486 3.754795 2.049581 -16.788831 -26.578415 -3.992546 -14.000461 14.895530 55.877754 0.000000 0.000000 0.000000 7.125000 0.000000 0.000000 78.265881 77.021015 -64.947522
7.076353 16.329726 31.243366 178.436523 -3.917994 -155.644100 0.000000 0.000000 0.000000 -18.898914 -15.393368 -18.073815 0.228042 3.073625 8.483759 0.290875 0.258170 -10.284424 2.831171 -10.415482 -30.334095 0.000000 0.000000 0.000000 18.872548 12.989962 -17.386802 -0.081607 -1.842999 5.071918 -1.108810 -2.110151 -20.756413 -2.941200 10.598857 -30.939053 -6.538152 -2.239857 -28.151731 0.317212 -1.375422 -0.701505 3.338180 -1.269558 14.313752 -1.453212 -3.266128 -0.585694 2.523309 -6.358964 18.806387 0.642740 -3.588789 5.905475 0.000000 0.000000 0.000000 4.974760 -3.352313 -24.228191 17.335623 -27.297835 4.240235 23.878034 -5.490434 14.435304 0.000000 0.000000 0.000000 -7.125000 0.000000 0.000000 -2.455277 14.267709 -1.776181 0.000000 0.000000 0.000000 1.093591 3.567418 2.080306 -16.783993 -26.572137 -3.990208 -12.754018 14.184519 55.691242 0.000000 0.000000 0.000000 7.125000 0.000000 0.000000 77.483059 76.550999 -63.659486
